<?xml version="1.0" encoding="iso-8859-1"?>
<!-- Generator: Adobe Illustrator 19.0.0, SVG Export Plug-In . SVG Version: 6.00 Build 0)  -->
<svg version="1.1" id="Layer_1" xmlns="http://www.w3.org/2000/svg" xmlns:xlink="http://www.w3.org/1999/xlink" x="0px" y="0px"
	 viewBox="0 0 496.2 496.2" style="enable-background:new 0 0 496.2 496.2;" xml:space="preserve">
<path style="fill:#008c9e;" d="M496.2,248.1C496.2,111.1,385.1,0,248.1,0S0,111.1,0,248.1s111.1,248.1,248.1,248.1
	S496.2,385.1,496.2,248.1z"/>
<g>
	<path style="fill:#1e1e1e;" d="M248.1,248.1H112.8V130c0-9.5,7.7-17.2,17.2-17.2h118.1V248.1z"/>
	<path style="fill:#1e1e1e;" d="M248.1,248.1V112.8h118.1c9.5,0,17.2,7.7,17.2,17.2v118.1H248.1z"/>
	<path style="fill:#1e1e1e;" d="M248.1,248.1H112.8v118.1c0,9.5,7.7,17.2,17.2,17.2h118.1V248.1z"/>
</g>
<path style="fill:#E5E1D8;" d="M248.1,248.1v135.3h118.1c9.5,0,17.2-7.7,17.2-17.2V248.1H248.1z"/>
<g>
	<rect x="112.8" y="246.6" style="fill:#6FA4AD;" width="270.6" height="3"/>
	<rect x="246.6" y="112.8" style="fill:#6FA4AD;" width="3" height="270.6"/>
</g>
<g>
	<path style="fill:#FFFFFF;" d="M211.3,173h-23.9v-23.9c0-1.1-0.9-2-2-2h-11.1c-1.1,0-2,0.9-2,2V173h-24c-1.1,0-2,0.9-2,2v10.9
		c0,1.1,0.9,2,2,2h24v24.2c0,1.1,0.9,2,2,2h11.1c1.1,0,2-0.9,2-2v-24.2h23.9c1.1,0,2-0.9,2-2V175C213.3,173.9,212.4,173,211.3,173z"
		/>
	<path style="fill:#FFFFFF;" d="M348.3,173h-63c-1.1,0-2,0.9-2,2v10.9c0,1.1,0.9,2,2,2h63c1.1,0,2-0.9,2-2V175
		C350.3,173.9,349.4,173,348.3,173z"/>
	<path style="fill:#FFFFFF;" d="M207.7,297.8c0-0.5-0.2-1-0.6-1.4l-7.8-7.8c-0.8-0.8-2-0.8-2.8,0l-16.9,16.9l-16.9-16.9
		c-0.8-0.8-2-0.8-2.8,0l-7.7,7.7c-0.4,0.4-0.6,0.9-0.6,1.4s0.2,1,0.6,1.4l16.9,16.9L152,333.1c-0.8,0.8-0.8,2,0,2.8l7.8,7.8
		c0.4,0.4,0.9,0.6,1.4,0.6l0,0c0.5,0,1-0.2,1.4-0.6l17.1-17.1l16.9,16.9c0.8,0.8,2,0.8,2.8,0l7.7-7.7c0.4-0.4,0.6-0.9,0.6-1.4
		s-0.2-1-0.6-1.4l-16.9-16.9l16.9-16.9C207.5,298.9,207.7,298.4,207.7,297.8z"/>
</g>
<g>
	<path style="fill:#2d2d2d;" d="M348.3,319.2h-63c-1.1,0-2,0.9-2,2v10.9c0,1.1,0.9,2,2,2h63c1.1,0,2-0.9,2-2v-10.9
		C350.3,320.1,349.4,319.2,348.3,319.2z"/>
	<path style="fill:#2d2d2d;" d="M348.3,296.6h-63c-1.1,0-2,0.9-2,2v10.9c0,1.1,0.9,2,2,2h63c1.1,0,2-0.9,2-2v-10.9
		C350.3,297.5,349.4,296.6,348.3,296.6z"/>
</g>
<g>
</g>
<g>
</g>
<g>
</g>
<g>
</g>
<g>
</g>
<g>
</g>
<g>
</g>
<g>
</g>
<g>
</g>
<g>
</g>
<g>
</g>
<g>
</g>
<g>
</g>
<g>
</g>
<g>
</g>
</svg>
